<?xml version="1.0" encoding="UTF-8" standalone="no"?>
<!-- Generator: Adobe Illustrator 25.4.1, SVG Export Plug-In . SVG Version: 6.00 Build 0)  -->

<svg
   xmlns:dc="http://purl.org/dc/elements/1.1/"
   xmlns:cc="http://creativecommons.org/ns#"
   xmlns:rdf="http://www.w3.org/1999/02/22-rdf-syntax-ns#"
   xmlns:svg="http://www.w3.org/2000/svg"
   xmlns="http://www.w3.org/2000/svg"
   xmlns:sodipodi="http://sodipodi.sourceforge.net/DTD/sodipodi-0.dtd"
   xmlns:inkscape="http://www.inkscape.org/namespaces/inkscape"
   version="1.0"
   id="Layer_1"
   x="0px"
   y="0px"
   width="218.26666"
   height="135.73265"
   viewBox="0 0 258.30374 203.59898"
   xml:space="preserve"
   sodipodi:docname="DP_World_2021_logo.svg"
   inkscape:version="0.92.4 (5da689c313, 2019-01-14)"><metadata
   id="metadata65"><rdf:RDF><cc:Work
       rdf:about=""><dc:format>image/svg+xml</dc:format><dc:type
         rdf:resource="http://purl.org/dc/dcmitype/StillImage" /><dc:title></dc:title></cc:Work></rdf:RDF></metadata><defs
   id="defs63" /><sodipodi:namedview
   pagecolor="#ffffff"
   bordercolor="#666666"
   borderopacity="1"
   objecttolerance="10"
   gridtolerance="10"
   guidetolerance="10"
   inkscape:pageopacity="0"
   inkscape:pageshadow="2"
   inkscape:window-width="1366"
   inkscape:window-height="705"
   id="namedview61"
   showgrid="false"
   fit-margin-top="0"
   fit-margin-left="0"
   fit-margin-right="0"
   fit-margin-bottom="0"
   inkscape:zoom="0.84911243"
   inkscape:cx="99.391606"
   inkscape:cy="16.047852"
   inkscape:window-x="-8"
   inkscape:window-y="-8"
   inkscape:window-maximized="1"
   inkscape:current-layer="Layer_1" />
<style
   type="text/css"
   id="style2">
	.st0{fill:url(#SVGID_1_);}
	.st1{fill:url(#SVGID_00000139258596182005202240000000998050819215149192_);}
	.st2{fill:#0F0F18;}
	.st3{fill:url(#SVGID_00000066495001078125671360000015275470603087945623_);}
	.st4{opacity:0.5;fill:url(#SVGID_00000144296532413494711020000007966654371741023134_);}
</style>
<g
   id="g58"
   transform="translate(-70.84813,-10.70102)">
	<linearGradient
   id="SVGID_1_"
   gradientUnits="userSpaceOnUse"
   x1="73.645798"
   y1="98.500999"
   x2="258.58371"
   y2="51.303299">
		<stop
   offset="0"
   style="stop-color:#5EB77D;stop-opacity:0.3"
   id="stop4" />
		<stop
   offset="0.6"
   style="stop-color:#5EB77D"
   id="stop6" />
		<stop
   offset="0.9641"
   style="stop-color:#5EB77D;stop-opacity:0.3627"
   id="stop8" />
		<stop
   offset="1"
   style="stop-color:#5EB77D;stop-opacity:0.3"
   id="stop10" />
	</linearGradient>
	<path
   class="st0"
   d="M 214.5,93.4 C 197.8,99.6 179.2,100.3 162,96.1 147.8,92.8 134.7,86.1 121.2,81.3 99.7,73.6 88.9,81.3 74.9,97.4 80.5,83.7 92.5,68 116.5,70 c 15.9,1.3 30.4,5.9 42,7.5 54.5,7.5 93.5,-23.3 92.7,-55.7 2.9,16.1 4.5,54.1 -36.7,71.6 z"
   id="path13"
   inkscape:connector-curvature="0"
   style="fill:url(#SVGID_1_)" />
	
		<linearGradient
   id="SVGID_00000015325242540316613450000000312388739388504509_"
   gradientUnits="userSpaceOnUse"
   x1="152.68311"
   y1="123.5069"
   x2="269.15881"
   y2="83.401199">
		<stop
   offset="0"
   style="stop-color:#0F0F18;stop-opacity:0.1"
   id="stop15" />
		<stop
   offset="0.6"
   style="stop-color:#0F0F18;stop-opacity:0.95"
   id="stop17" />
		<stop
   offset="1"
   style="stop-color:#0F0F18;stop-opacity:0.3"
   id="stop19" />
	</linearGradient>
	<path
   style="fill:url(#SVGID_00000015325242540316613450000000312388739388504509_)"
   d="m 204.6,135.6 c -25,1.6 -46.8,-10.9 -58.4,-31 39.3,34.8 116.7,7.4 113.1,-50 12.1,37.6 -15.4,78.5 -54.7,81 z"
   id="path22"
   inkscape:connector-curvature="0" />
	<g
   id="g38">
		<path
   class="st2"
   d="m 56.4,174.8 c -13.1,0 -20.1,0 -20.1,0 v 39.1 c 0,0 7.2,0 20.1,0 12.9,0 20.2,-9.4 20.2,-19.5 0,-10.2 -7.1,-19.6 -20.2,-19.6 z m 0,30.3 c -6.9,0 -10.8,0 -10.8,0 v -21.7 c 0,0 3.8,0 10.8,0 7,0 10.9,5.2 10.9,10.9 -0.1,5.6 -4,10.8 -10.9,10.8 z"
   id="path24"
   inkscape:connector-curvature="0"
   style="fill:#0f0f18" />
		<path
   class="st2"
   d="m 343.5,174.8 c -13.1,0 -20.1,0 -20.1,0 v 39.1 c 0,0 7.2,0 20.1,0 12.9,0 20.2,-9.4 20.2,-19.5 0,-10.2 -7.1,-19.6 -20.2,-19.6 z m 0,30.3 c -6.9,0 -10.8,0 -10.8,0 v -21.7 c 0,0 3.8,0 10.8,0 7,0 10.9,5.2 10.9,10.9 0,5.6 -4,10.8 -10.9,10.8 z"
   id="path26"
   inkscape:connector-curvature="0"
   style="fill:#0f0f18" />
		<path
   class="st2"
   d="m 80.6,174.8 c 0,0 14.4,0 22.9,0 8.5,0 15,6 15,14.6 0,8.6 -6.6,14.7 -15.1,14.7 -8.5,0 -13.5,0 -13.5,0 v 9.8 h -9.3 z m 9.3,8.4 v 12.1 H 103 c 8.1,0.1 8.1,-12.2 0,-12.1 z"
   id="path28"
   inkscape:connector-curvature="0"
   style="fill:#0f0f18" />
		<path
   class="st2"
   d="m 184.6,174.8 -8.1,23.9 -8.7,-23.9 c -0.1,0 -11.7,0 -11.8,0 l -8.7,23.9 -8.1,-23.9 h -9.4 l 12.3,39.1 h 9.3 l 10.6,-29.2 10.6,29.2 h 9.3 l 12.3,-39.1 z"
   id="path30"
   inkscape:connector-curvature="0"
   style="fill:#0f0f18" />
		<path
   class="st2"
   d="m 240.4,174.8 h 24 c 4.2,0 8,1.2 10.8,4 5.9,5.7 4.7,17 -2.5,21 l 7.2,14.1 h -10.2 l -5.5,-11.7 h -14.6 v 11.7 h -9.3 v -39.1 z m 9.3,8.5 v 10.4 h 14.1 c 3.6,0.1 5.7,-2 5.8,-5.2 0,-3.5 -2.2,-5.2 -5.8,-5.1 z"
   id="path32"
   inkscape:connector-curvature="0"
   style="fill:#0f0f18" />
		<path
   class="st2"
   d="m 284.3,174.8 h 9.3 v 30.1 h 25.9 v 8.9 h -35.2 z"
   id="path34"
   inkscape:connector-curvature="0"
   style="fill:#0f0f18" />
		<path
   class="st2"
   d="m 214.9,174.3 c -12.6,0 -21.3,7.9 -21.3,20 0,12.1 8.7,20 21.3,20 12.6,0 21.3,-7.9 21.3,-20 -0.1,-12.1 -8.7,-20 -21.3,-20 z m 0,30.8 c 0,0 0,0 0,0 0,0 0,0 0,0 v 0 c -7.1,0 -12,-4.3 -12,-10.8 0,-6.5 4.9,-10.8 12,-10.8 v 0 c 0,0 0,0 0,0 0,0 0,0 0,0 7.1,0 12,4.3 12,10.8 0,6.5 -5,10.8 -12,10.8 z"
   id="path36"
   inkscape:connector-curvature="0"
   style="fill:#0f0f18" />
	</g>
	
		<linearGradient
   id="SVGID_00000165934167110435584950000002565868080169731713_"
   gradientUnits="userSpaceOnUse"
   x1="137.82719"
   y1="44.1465"
   x2="226.8519"
   y2="44.1465">
		<stop
   offset="0"
   style="stop-color:#E72F64"
   id="stop40" />
		<stop
   offset="0.9"
   style="stop-color:#E72F64;stop-opacity:0.1"
   id="stop42" />
	</linearGradient>
	<path
   style="fill:url(#SVGID_00000165934167110435584950000002565868080169731713_)"
   d="m 158.6,77.5 v 0 C 157.1,41 189.8,10.9 226.9,16.9 185.4,-2.9 138,27.1 137.9,73.3 c 7.5,1.7 14.5,3.4 20.7,4.2 z"
   id="path45"
   inkscape:connector-curvature="0" />
	<g
   id="g56">
		
			<linearGradient
   id="SVGID_00000000907424882148723390000013523049299162079409_"
   gradientUnits="userSpaceOnUse"
   x1="173.65829"
   y1="84.307198"
   x2="179.7261"
   y2="54.668301">
			<stop
   offset="0"
   style="stop-color:#68102F"
   id="stop47" />
			<stop
   offset="0.15"
   style="stop-color:#67102F;stop-opacity:0.75"
   id="stop49" />
			<stop
   offset="1"
   style="stop-color:#68102F;stop-opacity:0"
   id="stop51" />
		</linearGradient>
		<path
   style="opacity:0.5;fill:url(#SVGID_00000000907424882148723390000013523049299162079409_)"
   d="m 158.6,77.5 v 0 C 157.1,41 189.8,10.9 226.9,16.9 185.4,-2.9 138,27.1 137.9,73.3 c 7.5,1.7 14.5,3.4 20.7,4.2 z"
   id="path54"
   inkscape:connector-curvature="0" />
	</g>
</g>
</svg>