<?xml version="1.0" encoding="utf-8"?>
<!-- Generator: Adobe Illustrator 15.0.0, SVG Export Plug-In . SVG Version: 6.00 Build 0)  -->
<!DOCTYPE svg PUBLIC "-//W3C//DTD SVG 1.0//EN" "http://www.w3.org/TR/2001/REC-SVG-20010904/DTD/svg10.dtd">
<svg version="1.0" id="Layer_1" xmlns="http://www.w3.org/2000/svg" xmlns:xlink="http://www.w3.org/1999/xlink" x="0px" y="0px"
	 width="184px" height="57px" viewBox="0 0 184 57" enable-background="new 0 0 184 57" xml:space="preserve">
<g>
	<path fill-rule="evenodd" clip-rule="evenodd" fill="#E11E2E" d="M180.676,52.582l-0.074-16.514h-20.986V3.94h-16.441v14.453
		c-3.98-8.589-12.643-14.561-22.734-14.561c-0.1,0-0.193,0.014-0.291,0.015c-0.113-0.001-0.227-0.015-0.342-0.015
		c-9.797,0-18.26,5.627-22.395,13.816C93.361,9.225,84.778,3.399,74.809,3.399c-10.51,0-19.499,6.465-23.235,15.633
		c-3.842-8.938-12.719-15.2-23.063-15.2c-13.861,0-25.097,11.235-25.097,25.097c0,13.86,11.235,25.096,25.097,25.096
		c10.509,0,19.498-6.467,23.235-15.633c3.841,8.938,12.718,15.199,23.063,15.199c9.797,0,18.263-5.629,22.395-13.814
		c4.051,8.42,12.635,14.248,22.604,14.248c0.113,0,0.223-0.014,0.336-0.016c0.1,0.002,0.195,0.016,0.297,0.016
		c10.076,0,18.746-5.943,22.734-14.512v12.996L180.676,52.582L180.676,52.582L180.676,52.582z M28.726,37.367
		c-4.779,0-8.654-3.877-8.654-8.655c0-4.781,3.875-8.655,8.654-8.655c4.779,0,8.655,3.874,8.655,8.655
		C37.381,33.49,33.505,37.367,28.726,37.367L28.726,37.367L28.726,37.367z M84.771,31.792c0.406,0.549,0.733,1.17,0.955,1.857
		c1.116,3.426-0.762,7.104-4.187,8.217c-2.771,0.9-5.708-0.154-7.32-2.404c-0.397,0.555-0.889,1.061-1.47,1.484
		c-2.915,2.115-6.995,1.471-9.113-1.443c-1.713-2.357-1.617-5.479,0.025-7.703c-0.651-0.207-1.282-0.518-1.866-0.939
		c-2.913-2.119-3.56-6.197-1.442-9.113c1.713-2.356,4.71-3.228,7.336-2.356c-0.005-0.683,0.095-1.377,0.319-2.062
		c1.112-3.428,4.793-5.301,8.219-4.188c2.772,0.899,4.529,3.48,4.509,6.245c0.648-0.216,1.341-0.333,2.063-0.333
		c3.603,0,6.523,2.92,6.523,6.521C89.321,28.489,87.408,30.955,84.771,31.792L84.771,31.792L84.771,31.792z M127.362,33.255
		c-1.463,2.355-4.012,3.955-6.957,4.086c-4.656-0.137-8.402-3.938-8.402-8.629c0-4.705,3.758-8.513,8.434-8.632
		c2.35,0.113,4.443,1.168,5.936,2.791h0.633h16.17v10.385h-15.18H127.362L127.362,33.255z"/>
	<path fill-rule="evenodd" clip-rule="evenodd" fill="#E11E2E" d="M83.744,23.989c-0.542,0.176-0.873,0.697-0.833,1.239
		l-5.946,1.928c-0.087-0.193-0.196-0.378-0.322-0.549l2.054-1.851c0.215,0.111,0.472,0.142,0.724,0.061
		c0.491-0.159,0.761-0.689,0.601-1.182c-0.161-0.491-0.689-0.762-1.183-0.601c-0.492,0.161-0.761,0.689-0.601,1.182
		c0.01,0.032,0.022,0.064,0.036,0.094l-2.045,1.841c-0.156-0.142-0.329-0.267-0.513-0.373l1.127-2.531
		c0.243,0.014,0.49-0.064,0.684-0.24c0.387-0.344,0.416-0.938,0.072-1.323c-0.348-0.386-0.94-0.417-1.325-0.069
		c-0.384,0.346-0.417,0.938-0.069,1.325c0.022,0.023,0.046,0.047,0.073,0.071l-1.123,2.516c-0.198-0.064-0.404-0.111-0.62-0.134
		v-6.273c0.515-0.142,0.895-0.609,0.895-1.169c0-0.671-0.543-1.213-1.214-1.213c-0.669,0-1.214,0.542-1.214,1.213
		c0,0.568,0.392,1.043,0.919,1.176v6.265c-0.214,0.02-0.421,0.064-0.62,0.126l-1.127-2.532c0.173-0.168,0.28-0.405,0.28-0.667
		c0-0.519-0.421-0.938-0.938-0.938c-0.518,0-0.938,0.419-0.938,0.938c0,0.518,0.42,0.938,0.938,0.938
		c0.035,0,0.068-0.001,0.102-0.005l1.12,2.513c-0.185,0.104-0.358,0.231-0.517,0.371l-2.058-1.854
		c0.089-0.226,0.091-0.485-0.017-0.725c-0.21-0.474-0.764-0.685-1.236-0.475c-0.474,0.211-0.688,0.764-0.477,1.237
		c0.21,0.473,0.765,0.686,1.238,0.477c0.032-0.015,0.062-0.03,0.09-0.047l2.042,1.839c-0.127,0.169-0.238,0.353-0.326,0.548
		L65.521,25.2c0.025-0.533-0.303-1.037-0.837-1.21c-0.638-0.208-1.322,0.142-1.529,0.778c-0.207,0.641,0.142,1.323,0.78,1.531
		c0.54,0.176,1.114-0.049,1.403-0.511l5.938,1.929c-0.046,0.207-0.074,0.421-0.076,0.641l-2.731,0.286
		c-0.108-0.216-0.299-0.392-0.548-0.474c-0.493-0.159-1.021,0.11-1.182,0.604c-0.16,0.492,0.109,1.021,0.602,1.18
		c0.492,0.16,1.022-0.107,1.181-0.602c0.011-0.033,0.019-0.066,0.027-0.098l2.708-0.284c0.041,0.214,0.105,0.423,0.189,0.621
		l-2.366,1.365c-0.188-0.154-0.434-0.236-0.693-0.211c-0.516,0.057-0.889,0.52-0.836,1.033c0.056,0.514,0.516,0.889,1.029,0.834
		c0.518-0.055,0.891-0.516,0.836-1.031c-0.003-0.033-0.008-0.066-0.015-0.102l2.349-1.354c0.125,0.178,0.27,0.342,0.431,0.486
		l-3.66,5.039c-0.501-0.189-1.083-0.033-1.411,0.422c-0.395,0.541-0.275,1.301,0.269,1.695c0.542,0.395,1.302,0.273,1.695-0.27
		c0.334-0.461,0.297-1.074-0.053-1.492l3.653-5.025c0.187,0.111,0.388,0.205,0.598,0.271l-0.565,2.658
		c-0.24,0.037-0.466,0.166-0.621,0.377c-0.304,0.42-0.212,1.006,0.207,1.309c0.419,0.305,1.007,0.213,1.31-0.207
		c0.305-0.42,0.211-1.006-0.207-1.309c-0.029-0.02-0.056-0.039-0.086-0.055l0.56-2.641c0.113,0.012,0.227,0.02,0.342,0.02
		c0.108,0,0.211-0.004,0.316-0.014l0.564,2.654c-0.205,0.129-0.359,0.338-0.414,0.596c-0.108,0.506,0.216,1.004,0.724,1.109
		c0.506,0.109,1.004-0.215,1.111-0.721c0.109-0.508-0.214-1.004-0.723-1.113c-0.033-0.006-0.066-0.012-0.099-0.014l-0.562-2.639
		c0.211-0.068,0.412-0.16,0.598-0.271l3.658,5.035c-0.333,0.416-0.363,1.02-0.035,1.471c0.394,0.543,1.154,0.664,1.695,0.27
		c0.543-0.395,0.665-1.154,0.269-1.695c-0.335-0.461-0.931-0.617-1.436-0.41l-3.654-5.031c0.162-0.145,0.309-0.309,0.435-0.484
		l2.366,1.363c-0.041,0.238,0.011,0.494,0.166,0.705c0.305,0.42,0.891,0.512,1.31,0.207c0.419-0.303,0.512-0.889,0.208-1.309
		c-0.305-0.42-0.893-0.512-1.311-0.207c-0.029,0.02-0.055,0.041-0.08,0.064l-2.354-1.359c0.087-0.195,0.157-0.401,0.2-0.616
		l2.724,0.285c0.06,0.234,0.211,0.446,0.438,0.579c0.448,0.256,1.022,0.104,1.281-0.347c0.26-0.447,0.104-1.021-0.344-1.279
		c-0.448-0.258-1.021-0.105-1.28,0.342c-0.017,0.029-0.033,0.06-0.045,0.092l-2.714-0.287c0-0.218-0.026-0.433-0.072-0.639
		l5.948-1.93c0.293,0.444,0.856,0.66,1.389,0.486c0.637-0.207,0.984-0.89,0.779-1.529C85.067,24.131,84.382,23.781,83.744,23.989
		L83.744,23.989z"/>
</g>
</svg>
