<?xml version="1.0" encoding="UTF-8" standalone="no"?>
<!-- Created with Inkscape (http://www.inkscape.org/) -->

<svg
   xmlns:dc="http://purl.org/dc/elements/1.1/"
   xmlns:cc="http://creativecommons.org/ns#"
   xmlns:rdf="http://www.w3.org/1999/02/22-rdf-syntax-ns#"
   xmlns:svg="http://www.w3.org/2000/svg"
   xmlns="http://www.w3.org/2000/svg"
   xmlns:sodipodi="http://sodipodi.sourceforge.net/DTD/sodipodi-0.dtd"
   xmlns:inkscape="http://www.inkscape.org/namespaces/inkscape"
   version="1.1"
   id="svg2"
   xml:space="preserve"
   width="160"
   height="150"
   viewBox="0 0 160 150"
   sodipodi:docname="ZIM.svg"
   inkscape:version="0.92.5 (2060ec1f9f, 2020-04-08)"><metadata
     id="metadata8"><rdf:RDF><cc:Work
         rdf:about=""><dc:format>image/svg+xml</dc:format><dc:type
           rdf:resource="http://purl.org/dc/dcmitype/StillImage" /><dc:title></dc:title></cc:Work></rdf:RDF></metadata><defs
     id="defs6" /><sodipodi:namedview
     pagecolor="#ffffff"
     bordercolor="#666666"
     borderopacity="1"
     objecttolerance="10"
     gridtolerance="10"
     guidetolerance="10"
     inkscape:pageopacity="0"
     inkscape:pageshadow="2"
     inkscape:window-width="1366"
     inkscape:window-height="705"
     id="namedview4"
     showgrid="false"
     inkscape:zoom="1.3111111"
     inkscape:cx="152.32219"
     inkscape:cy="133.54134"
     inkscape:window-x="-8"
     inkscape:window-y="-8"
     inkscape:window-maximized="1"
     inkscape:current-layer="g10" /><g
     id="g10"
     inkscape:groupmode="layer"
     inkscape:label="ZIM-Q2-2021-investors-call-FINAL"
     transform="matrix(1.3333333,0,0,-1.3333333,0,150)"><path
       d="m 11.544701,112.5 -3.5676585,-6.22545 h -7.431851 l 3.715004,-6.520139 -3.715004,-6.50172 h 7.431851 l 3.5676585,-6.22543 3.567657,6.22543 h 7.431853 l -3.716848,6.50172 3.716848,6.520139 h -7.431853 z m 32.270996,0 -3.56766,-6.22545 h -7.431848 l 3.715004,-6.520139 -3.715004,-6.50172 h 7.431848 l 3.56766,-6.22543 3.565814,6.22543 h 7.431852 l -3.715008,6.50172 3.715008,6.520139 h -7.431852 z m 32.265465,0 -3.562122,-6.22545 h -7.431852 l 3.715002,-6.520139 -3.715002,-6.50172 h 7.431852 l 3.562122,-6.22543 3.56583,6.22543 h 7.43184 l -3.71501,6.50172 3.71501,6.520139 h -7.43184 z m 32.374148,0 -3.56766,-6.22545 h -7.431848 l 3.716858,-6.520139 -3.716858,-6.50172 h 7.431848 l 3.56766,-6.22543 3.56766,6.22543 h 7.43184 l -3.71685,6.50172 3.71685,6.520139 h -7.43184 z M 28.147108,84.282921 24.57945,78.057451 H 17.1476 l 3.716846,-6.5017 -3.716846,-6.50172 h 7.43185 l 3.567658,-6.24387 3.567657,6.24387 h 7.431852 l -3.715005,6.50172 3.715005,6.5017 h -7.431852 z m 31.852895,0 -3.567654,-6.22547 h -7.431852 l 3.716844,-6.5017 -3.716844,-6.50172 h 7.431852 l 3.567654,-6.24387 3.567667,6.24387 h 7.43184 l -3.716838,6.50172 3.716838,6.5017 h -7.43184 z m 31.852889,0 -3.56764,-6.22547 h -7.43186 l 3.71501,-6.5017 -3.71501,-6.50172 h 7.43186 l 3.56764,-6.24387 3.56766,6.24387 h 7.431868 l -3.716858,6.50172 3.716858,6.5017 H 95.420552 Z M 0.8804075,50.208741 V 35.326621 L 23.07282,35.289821 0.8804075,15.121601 V 1.40625e-6 H 46.606095 V 14.440081 H 22.13532 l 24.470775,21.19965 v 14.56901 z m 51.3525295,0 V 1.40625e-6 H 64.92694 V 50.208741 Z m 17.775661,0 V 1.40625e-6 H 83.463292 V 23.612481 L 91.460582,1.40625e-6 h 7.56999 L 107.02971,23.612481 V 1.40625e-6 h 12.38091 V 50.208741 h -15.86568 l -8.212798,-23.17044 -8.22016,23.17044 z"
       style="fill:#222d60;fill-opacity:1;fill-rule:evenodd;stroke:none;stroke-width:1.84184647"
       id="path46"
       inkscape:connector-curvature="0" /></g></svg>